<?xml version="1.0" encoding="UTF-8"?>
<svg id="_레이어_1" data-name="레이어 1" xmlns="http://www.w3.org/2000/svg" viewBox="0 0 744.23 267.36">
  <defs>
    <style>
      .cls-1 {
        fill: #333;
      }
    </style>
  </defs>
  <path class="cls-1" d="M206.24,51.51c36.01,24.7,48.44,70.72,18.75,106.05-24.57,29.24-61.62,39.12-98.61,37.98-9.75-.3-11.14,3.98-18.48,8.71-5.6,3.61-11.53,6.87-17.13,10.51-7.66,4.98-17.07,12.75-24.96,16.68-7.18,3.58-9.43-1.4-8.03-8.02,2.72-12.81,7.91-26.05,10.88-38.92.34-1.47.85-2.92.45-4.46-11.22-7.41-22.52-15.73-30.31-26.86-29.57-42.25-6.03-89.04,35.72-109.68,40.53-20.03,94.2-17.71,131.71,8.02Z"/>
  <path class="cls-1" d="M331.96,43.59c1.28.37,4,8.95,4.16,10.86,2.1.54,2.87-2.12,4.31-3.19,29.41-21.72,70.93-14.78,84.23,20.96,13.22,35.52,5.24,89.91-33.64,105.79-14.89,6.08-32.32,6.07-47.88,2.88v51.08h-36.72l-.96-.96V43.59h26.5ZM343.14,74.56v79.82l1.6.96c16.29,1.34,32.46-.11,41.07-15.76,8.19-14.89,9.24-48.36-1.53-62.08-9-11.46-29.7-9.8-41.13-2.93Z"/>
  <path class="cls-1" d="M718.58,47.44c.13.9.08,1.79-.15,2.68-2.94,11.35-10.09,26.01-14.31,37.41-11.73,31.65-22.98,68.1-37.4,97.97-9.92,20.55-22.41,39.37-42.19,51.73h-1.52s-22.52-20.24-22.52-20.24c8.72-8.15,16.85-16.26,23.75-26.08,2.45-3.49,4.29-7.54,6.9-10.47l-49.15-132,1.59-1c4.6-.25,34.37-9.87,36.02-8.3.63,3.56,1.6,7.63,2.65,11.08,6.86,22.49,13.65,45.65,20.43,67.69,2.51,8.16,4.76,17.09,7.52,25.04.32.92-.17,1.07,1.35.89l30.66-106,36.37,9.6Z"/>
  <path class="cls-1" d="M530.23,87.33c-.51-3.87-3.62-9.96-6.79-12.34-10.73-8.02-33.41-3.61-45.43.34-3.51,1.16-6.78,3.01-10.35,4.02l-9.48-23.48c-.29-.76.03-1.22.48-1.79.14-.18,3.35-2.54,3.76-2.78,22.1-12.91,62.15-17.72,83.99-2.5,15.13,10.55,18.22,28.18,19.58,45.55v84.6s-27.13,0-27.13,0c-1.45-2.86-2.03-6.47-3.36-9.41-1.12-2.47-5.08,2.2-6.4,2.97-31.16,18.03-74.88,15.38-78.66-27.73-2.6-29.63,18.47-45.32,45.7-48.15,10.78-1.12,23.16.73,34.11-.05-.27-2.93.37-6.41,0-9.26ZM530.23,119.58c-13.28.17-40.24-2.46-45.13,13.94-2.3,7.72-.16,18.26,8.55,20.4,11.61,2.85,27.41-2.43,36.57-9.75v-24.58Z"/>
</svg>