<?xml version="1.0" encoding="UTF-8"?>
<svg id="_레이어_1" data-name="레이어 1" xmlns="http://www.w3.org/2000/svg" viewBox="0 0 267.36 267.36">
  <defs>
    <style>
      .cls-1 {
        fill: #fff;
      }
    </style>
  </defs>
  <path class="cls-1" d="M216.87,100.38c0-45.94-37.24-83.19-83.19-83.19S50.49,54.44,50.49,100.38c0,26.67,12.56,50.41,32.08,65.64h0c30.07,31.18,43.82,76.86,43.82,76.86,0,4.03,3.26,7.29,7.29,7.29s7.29-3.26,7.29-7.29c0,0,13.75-45.68,43.82-76.86h0c19.52-15.22,32.08-38.96,32.08-65.64ZM133.68,128.51c-15.54,0-28.13-12.59-28.13-28.13s12.59-28.13,28.13-28.13,28.13,12.59,28.13,28.13-12.6,28.13-28.13,28.13Z"/>
</svg>